HIERARCHY
ROOT SimulationBone
{
	OFFSET 0.000000 0.000000 0.000000
	CHANNELS 6 Xposition Yposition Zposition Zrotation Yrotation Xrotation 
	JOINT Hips
	{
		OFFSET 0.000000 0.000000 0.000000
		CHANNELS 6 Xposition Yposition Zposition Zrotation Yrotation Xrotation 
		JOINT LeftUpLeg
		{
			OFFSET 0.103458 1.857831 10.548505
			CHANNELS 3 Zrotation Yrotation Xrotation
			JOINT LeftLeg
			{
				OFFSET 43.500000 -0.000031 0.000002
				CHANNELS 3 Zrotation Yrotation Xrotation
				JOINT LeftFoot
				{
					OFFSET 42.372200 0.000023 0.000003
					CHANNELS 3 Zrotation Yrotation Xrotation
					JOINT LeftToe
					{
						OFFSET 17.299997 -0.000001 -0.000010
						CHANNELS 3 Zrotation Yrotation Xrotation
						End Site
						{
							OFFSET 0.000000 0.000000 0.000000
						}
					}
				}
			}
		}
		JOINT RightUpLeg
		{
			OFFSET 0.103457 1.857828 -10.548510
			CHANNELS 3 Zrotation Yrotation Xrotation
			JOINT RightLeg
			{
				OFFSET 43.500046 -0.000015 0.000002
				CHANNELS 3 Zrotation Yrotation Xrotation
				JOINT RightFoot
				{
					OFFSET 42.372261 -0.000008 0.000023
					CHANNELS 3 Zrotation Yrotation Xrotation
					JOINT RightToe
					{
						OFFSET 17.299990 -0.000007 -0.000002
						CHANNELS 3 Zrotation Yrotation Xrotation
						End Site
						{
							OFFSET 0.000000 0.000000 0.000000
						}
					}
				}
			}
		}
		JOINT Spine
		{
			OFFSET 6.901967 -2.603726 -0.000001
			CHANNELS 3 Zrotation Yrotation Xrotation
			JOINT Spine1
			{
				OFFSET 12.588100 -0.000009 -0.000003
				CHANNELS 3 Zrotation Yrotation Xrotation
				JOINT Spine2
				{
					OFFSET 12.343202 0.000008 0.000008
					CHANNELS 3 Zrotation Yrotation Xrotation
					JOINT Neck
					{
						OFFSET 25.832897 -0.000015 -0.000004
						CHANNELS 3 Zrotation Yrotation Xrotation
						JOINT Head
						{
							OFFSET 11.766609 0.000013 -0.000006
							CHANNELS 3 Zrotation Yrotation Xrotation
							End Site
							{
								OFFSET 0.000000 0.000000 0.000000
							}
						}
					}
					JOINT LeftShoulder
					{
						OFFSET 19.745911 -1.480373 6.000098
						CHANNELS 3 Zrotation Yrotation Xrotation
						JOINT LeftArm
						{
							OFFSET 11.284123 -0.000007 -0.000032
							CHANNELS 3 Zrotation Yrotation Xrotation
							JOINT LeftForeArm
							{
								OFFSET 33.000050 0.000005 0.000031
								CHANNELS 3 Zrotation Yrotation Xrotation
								JOINT LeftHand
								{
									OFFSET 25.200008 0.000017 0.000013
									CHANNELS 3 Zrotation Yrotation Xrotation
									End Site
									{
										OFFSET 0.000000 0.000000 0.000000
									}
								}
							}
						}
					}
					JOINT RightShoulder
					{
						OFFSET 19.746092 -1.480379 -6.000077
						CHANNELS 3 Zrotation Yrotation Xrotation
						JOINT RightArm
						{
							OFFSET 11.284136 -0.000017 -0.000017
							CHANNELS 3 Zrotation Yrotation Xrotation
							JOINT RightForeArm
							{
								OFFSET 33.000099 0.000019 0.000015
								CHANNELS 3 Zrotation Yrotation Xrotation
								JOINT RightHand
								{
									OFFSET 25.199780 0.000140 0.000408
									CHANNELS 3 Zrotation Yrotation Xrotation
									End Site
									{
										OFFSET 0.000000 0.000000 0.000000
									}
								}
							}
						}
					}
				}
			}
		}
	}
}
MOTION
Frames: 5
Frame Time: 0.033333
88.313345 0.000000 63.748026 0.000000 189.891975 0.000000 -0.540211 87.981453 0.719175 94.075196 3.602265 -175.098822 167.856489 -3.860899 176.400769 -77.065359 2.756379 -3.730276 70.657795 1.716241 -2.555213 21.454562 0.003108 0.000018 161.608751 -0.323395 -178.209730 -37.986848 2.575526 2.724660 80.887854 -1.574421 1.708449 21.454551 -0.003090 0.000000 8.647788 1.783111 -1.002376 7.256367 3.625416 -1.892096 6.937769 3.613789 -1.913977 10.149999 11.900790 13.001527 -14.814320 -14.690091 19.571547 -174.965514 -71.843017 -6.558290 -17.348839 60.214456 22.281928 -25.941369 -17.059956 1.313789 10.957467 -0.292238 5.794871 -167.259653 71.755406 14.525823 -11.813045 -49.312197 -27.620891 -24.270790 12.727182 -0.985744 10.710092 -0.033473 -30.382631 
85.377494 0.000000 64.221890 0.000000 191.131784 0.000000 -0.565791 88.879463 0.740354 93.817412 3.420710 -176.103653 163.440990 -3.859496 174.596588 -77.656300 2.446104 -5.414068 71.022295 2.894623 -2.745832 21.454545 0.003113 0.000015 165.095453 -0.423095 -178.689620 -34.851406 2.706542 3.116039 81.383412 -1.845499 1.764760 21.454553 -0.003091 -0.000000 8.429925 1.681762 -0.757008 6.828973 3.405138 -1.414316 6.510380 3.396399 -1.434875 9.939475 11.148571 12.734650 -14.244327 -14.391951 19.056402 -173.050192 -71.581270 -8.526625 -12.087884 59.530132 27.473282 -26.961477 -16.875362 1.319481 9.976203 0.806949 9.577558 -169.082549 72.251196 12.650110 -18.203129 -48.355960 -24.924035 -24.843053 13.126960 -1.020050 10.326214 0.897995 -31.208275 
82.420204 0.000000 64.800804 0.000000 192.320386 0.000000 -0.688983 89.728394 0.712734 93.042285 3.224870 -177.199313 158.686427 -3.964598 173.213420 -76.232937 1.933126 -5.019740 70.239972 2.640341 -2.688817 21.454560 0.003106 0.000017 168.276013 -0.375504 -179.060472 -31.110815 2.774407 3.383813 81.455777 -2.024439 1.813364 21.454553 -0.003092 0.000000 8.089854 1.545269 -0.453693 6.157908 3.112412 -0.825128 5.839311 3.107234 -0.843932 8.620206 10.585771 12.541951 -12.965765 -13.935083 18.553581 -170.529907 -71.486447 -11.120048 -6.592301 58.518219 34.177157 -28.800278 -17.110969 1.367817 8.463672 1.079291 11.690567 -170.795519 73.193099 10.891397 -23.532604 -47.476058 -22.920489 -26.596065 13.558564 -1.075873 9.849761 2.690798 -32.855071 
79.440126 0.000000 65.471295 0.000000 193.458566 0.000000 -0.867170 90.292374 0.691880 92.239328 3.123483 -178.362425 154.534314 -4.214600 172.419287 -72.578423 1.195837 -3.906899 70.580334 2.183814 -1.767899 21.454551 0.003109 0.000018 171.247473 -0.311905 -179.141341 -27.621708 2.819489 3.428351 81.567273 -2.059396 1.795536 21.454553 -0.003091 -0.000000 7.779519 1.391025 -0.100063 5.546199 2.785249 -0.133743 5.227707 2.784258 -0.150575 6.738410 10.723389 12.344619 -12.289553 -14.442621 18.560499 -167.221199 -71.843434 -14.524532 -1.531049 57.589833 40.251705 -31.171293 -17.537467 1.441791 7.214561 1.807807 11.712923 -172.791574 74.251909 8.848613 -27.944693 -46.280057 -21.390455 -29.250948 14.243098 -1.166853 8.505707 3.836927 -33.065701 
76.444344 0.000000 66.237443 0.000000 194.556179 0.000000 -1.066488 90.641457 0.629068 91.493326 2.625147 -179.629546 151.260481 -3.978102 173.157371 -66.821414 -0.736925 -3.891063 70.984285 2.311596 -1.580577 21.454551 0.003113 0.000017 173.929032 0.226197 -179.150384 -24.794399 2.811872 3.309699 81.953630 -1.969950 1.841568 21.454553 -0.003092 0.000000 7.578804 1.149788 0.215775 5.150590 2.288944 0.482266 4.832231 2.291675 0.468423 4.008462 10.235910 12.651880 -11.857342 -13.500001 18.641297 -163.767487 -71.565411 -18.079596 2.814695 56.120447 44.152361 -34.140663 -18.096849 1.542112 6.359934 3.271509 10.798532 -174.662745 75.322384 6.940587 -32.147078 -44.548379 -19.436907 -32.471047 15.053450 -1.283077 5.890223 4.741675 -30.086717 
